<svg id="visual" viewBox="0 0 900 600" width="900" height="600" xmlns="http://www.w3.org/2000/svg" xmlns:xlink="http://www.w3.org/1999/xlink" version="1.1"><rect x="0" y="0" width="900" height="600" fill="#fff"></rect><defs><linearGradient id="grad1_0" x1="33.3%" y1="0%" x2="100%" y2="100%"><stop offset="20%" stop-color="#ffffff" stop-opacity="1"></stop><stop offset="80%" stop-color="#ffffff" stop-opacity="1"></stop></linearGradient></defs><defs><linearGradient id="grad2_0" x1="0%" y1="0%" x2="66.7%" y2="100%"><stop offset="20%" stop-color="#ffffff" stop-opacity="1"></stop><stop offset="80%" stop-color="#ffffff" stop-opacity="1"></stop></linearGradient></defs><g transform="translate(900, 0)"><path d="M0 486.7C-35.1 455.8 -70.1 424.9 -110.5 412.5C-150.9 400 -196.7 405.9 -220.5 381.9C-244.3 358 -246.1 304.2 -280.7 280.7C-315.4 257.2 -382.8 264 -420 242.5C-457.2 221 -464.1 171.1 -470.2 126C-476.2 80.8 -481.5 40.4 -486.7 0L0 0Z" fill="#A02E2A"></path></g><g transform="translate(0, 600)"><path d="M0 -486.7C34.9 -454.3 69.8 -421.9 111.3 -415.3C152.8 -408.8 201 -428.2 243.4 -421.5C285.7 -414.8 322.2 -382 341.5 -341.5C360.9 -301.1 363.2 -252.9 369.8 -213.5C376.4 -174.1 387.4 -143.4 407.6 -109.2C427.8 -75.1 457.3 -37.5 486.7 0L0 0Z" fill="#A02E2A"></path></g></svg>