<svg id="visual" viewBox="0 0 1920 400" width="1920" height="400" xmlns="http://www.w3.org/2000/svg" xmlns:xlink="http://www.w3.org/1999/xlink" version="1.1"><path d="M1573 400L1612 300L1650 200L1612 100L1631 0L1920 0L1920 100L1920 200L1920 300L1920 400Z" fill="#762122"></path><path d="M1305 400L1362 300L1381 200L1343 100L1401 0L1632 0L1613 100L1651 200L1613 300L1574 400Z" fill="#8b2726"></path><path d="M1055 400L1113 300L1113 200L1074 100L1151 0L1402 0L1344 100L1382 200L1363 300L1306 400Z" fill="#a02e2a"></path><path d="M421 400L537 300L479 200L479 100L575 0L1152 0L1075 100L1114 200L1114 300L1056 400Z" fill="#b04842"></path><path d="M0 400L0 300L0 200L0 100L0 0L576 0L480 100L480 200L538 300L422 400Z" fill="#bf615b"></path></svg>